<svg width="40" height="78" viewBox="0 0 40 78" xmlns="http://www.w3.org/2000/svg"><title>Vector 1</title><g fill="#fff" fill-rule="evenodd"><path d="M20 6c2.757 0 5 2.243 5 5s-2.243 5-5 5-5-2.243-5-5 2.243-5 5-5zm0 8c1.654 0 3-1.346 3-3s-1.346-3-3-3-3 1.346-3 3 1.346 3 3 3z"/><path d="M14.05 37.853c-2.522-.877-5.094-2.584-7.485-4.974-7.408-7.409-7.408-19.462 0-26.87 7.408-7.409 19.462-7.409 26.87 0 7.408 7.408 7.408 19.461 0 26.87-1.843 1.843-4.122 3.27-6.778 4.245v10.19l3.242 3.242-3.242 3.243v.586l3.242 3.242-3.242 3.243v.586l3.242 3.242-3.282 3.283-.307 3.136-6.31 6.31-5.95-5.95V37.853zM20 74.598l4.39-4.39.307-3.136 2.374-2.374-2.414-2.414v-2.243l2.414-2.414-2.414-2.414V52.97l2.414-2.414-2.414-2.414v-12.45l.687-.227c2.69-.89 4.874-2.198 6.677-4 6.628-6.629 6.628-17.414 0-24.042-6.629-6.629-17.413-6.629-24.042 0-6.628 6.628-6.628 17.413 0 24.041 2.38 2.38 4.92 4.004 7.346 4.696l.726.207v34.281L20 74.598z"/></g></svg>